<?xml version="1.0" encoding="iso-8859-1"?>
<!-- Generator: Adobe Illustrator 19.0.0, SVG Export Plug-In . SVG Version: 6.00 Build 0)  -->
<svg version="1.1" id="Capa_1" xmlns="http://www.w3.org/2000/svg" xmlns:xlink="http://www.w3.org/1999/xlink" x="0px" y="0px"
	 viewBox="0 0 512 512" style="enable-background:new 0 0 512 512;" xml:space="preserve">
<path style="fill:#82CD64;" d="M512,256c0,141.385-114.615,256-256,256S0,397.385,0,256S114.615,0,256,0S512,114.615,512,256z"/>
<path style="fill:#6EA550;" d="M472.061,122.598L256,51.815L39.939,122.598v86.293c0,123.138,74.079,237.054,194.92,302.235
	C241.833,511.695,248.88,512,256,512s14.167-0.305,21.14-0.875c120.842-65.18,194.92-179.096,194.92-302.235v-86.292H472.061z
	 M422.391,208.891c0,106.653-63.1,205.504-166.391,263.382C152.708,414.395,89.608,315.544,89.608,208.891v-57.084L256,97.295
	l166.391,54.511V208.891z"/>
<path style="fill:#EDC85F;" d="M256,491L256,491L256,491C122.708,428.119,39.939,308.244,39.939,178.076V91.783L256,21
	l216.061,70.783v86.293C472.061,308.244,389.292,428.119,256,491z"/>
<path style="fill:#FFD06B;" d="M296.03,34.114l176.03,57.669v86.293c0,116.586-66.405,224.905-176.03,291.423
	C186.405,402.981,120,294.661,120,178.076V91.783L296.03,34.114z"/>
<path style="fill:#FFFAD2;" d="M39.939,91.783v86.293C39.939,308.244,122.707,428.118,256,491l0,0l0,0
	c133.292-62.882,216.06-182.756,216.06-312.924V91.783L256,21L39.939,91.783z M422.391,178.076
	c0,106.653-63.1,205.504-166.391,263.382C152.709,383.58,89.609,284.729,89.609,178.076v-57.084L256,66.48l166.391,54.511V178.076z"
	/>
<g>
	<path style="fill:#FFF5AF;" d="M266.601,485.813c-3.5,1.767-7.028,3.501-10.601,5.187l0,0l0,0
		C122.708,428.118,39.94,308.244,39.94,178.076V91.783l27.939-9.153v85.351C67.879,296.333,143.13,415.326,266.601,485.813z"/>
	<path style="fill:#FFF5AF;" d="M315.667,295.667H199v-82.055h116.667V295.667z"/>
</g>
<path style="fill:#FFF091;" d="M314.333,295.667h-32.795v-82.055h32.795V295.667z"/>
<path style="fill:#FF5A5F;" d="M357.433,211.661H370l5.748-19.989l-43.572-26.661v-36.032c1.461,0,2.645-1.184,2.645-2.645v-5.29
	c0-1.461-1.184-2.645-2.645-2.645h-26.45c-1.461,0-2.645,1.184-2.645,2.645v5.29c0,1.461,1.184,2.645,2.645,2.645v19.847
	L256,118.399l-119.748,73.273L140,211.661h14.566v103.746h-8.015V330h8.015h202.867h8.015v-14.593h-8.015L357.433,211.661
	L357.433,211.661z M250.093,286.22h-39.262v-26.806h39.262L250.093,286.22L250.093,286.22z M250.093,249.737h-39.262v-26.806h39.262
	L250.093,249.737L250.093,249.737z M301.169,286.22h-39.262v-26.806h39.262V286.22z M301.169,249.737h-39.262v-26.806h39.262
	V249.737z"/>
<path style="fill:#D74646;" d="M357.434,315.407h8.015V330h-8.015H154.567h-8.015v-14.593h8.015v-0.077h202.867L357.434,315.407
	L357.434,315.407z M318.681,156.887v-38.488h-12.955c-1.46,0-2.645,1.184-2.645,2.645v5.29c0,1.461,1.184,2.645,2.645,2.645v19.847
	L256,118.399l-119.748,73.273L140,211.661h5.051L256,143.771l49.726,30.427l26.45,16.185l34.773,21.277H370l5.748-19.989
	L318.681,156.887z M313.331,211.661v85.374H199.072v-85.374L313.331,211.661L313.331,211.661z M250.093,259.414h-39.262v26.806
	h39.262L250.093,259.414L250.093,259.414z M250.093,222.931h-39.262v26.806h39.262L250.093,222.931L250.093,222.931z
	 M301.169,259.414h-39.262v26.806h39.262V259.414z M301.169,222.931h-39.262v26.806h39.262V222.931z"/>
<g>
</g>
<g>
</g>
<g>
</g>
<g>
</g>
<g>
</g>
<g>
</g>
<g>
</g>
<g>
</g>
<g>
</g>
<g>
</g>
<g>
</g>
<g>
</g>
<g>
</g>
<g>
</g>
<g>
</g>
</svg>
